<?xml version="1.0" standalone="no"?>
<!DOCTYPE svg PUBLIC "-//W3C//DTD SVG 20010904//EN"
 "http://www.w3.org/TR/2001/REC-SVG-20010904/DTD/svg10.dtd">
<svg version="1.0" xmlns="http://www.w3.org/2000/svg"
 width="100.000000pt" height="100.000000pt" viewBox="0 0 100.000000 100.000000"
 preserveAspectRatio="xMidYMid meet">
<metadata>
Created by potrace 1.14, written by Peter Selinger 2001-2017
</metadata>
<g transform="translate(0.000000,100.000000) scale(0.100000,-0.100000)"
fill="#000000" stroke="none">
<path d="M0 500 l0 -500 500 0 500 0 0 500 0 500 -500 0 -500 0 0 -500z m758
328 c35 -22 82 -104 82 -143 0 -30 -34 -97 -61 -122 -13 -12 -43 -29 -67 -39
-38 -15 -48 -15 -85 -3 -57 19 -102 61 -123 114 -14 39 -15 51 -4 91 15 54 65
109 113 123 43 13 104 5 145 -21z"/>
</g>
</svg>
