<?xml version="1.0" standalone="no"?>
<!DOCTYPE svg PUBLIC "-//W3C//DTD SVG 20010904//EN"
 "http://www.w3.org/TR/2001/REC-SVG-20010904/DTD/svg10.dtd">
<svg version="1.0" xmlns="http://www.w3.org/2000/svg"
 width="344.000000pt" height="344.000000pt" viewBox="0 0 344.000000 344.000000"
 preserveAspectRatio="xMidYMid meet">
<metadata>
Created by potrace 1.14, written by Peter Selinger 2001-2017
</metadata>
<g transform="translate(0.000000,344.000000) scale(0.100000,-0.100000)"
fill="#000000" stroke="none">
<path d="M2033 2989 c-95 -11 -333 -39 -528 -64 -325 -40 -361 -47 -407 -72
-28 -15 -63 -42 -77 -60 -20 -25 -34 -33 -59 -33 -77 0 -121 -50 -129 -144 -3
-33 -12 -73 -19 -88 -22 -43 -17 -68 22 -104 l35 -34 117 -932 117 -931 73
-38 c169 -85 314 -113 547 -106 141 4 188 9 271 31 98 26 270 89 288 106 5 5
12 51 17 102 5 51 43 464 84 917 42 454 76 825 78 826 1 1 21 9 44 19 32 14
45 27 53 52 15 44 -3 101 -35 116 -19 8 -22 18 -22 64 0 55 -20 94 -49 94 -7
0 -18 19 -24 43 -28 109 -62 206 -81 230 -18 24 -27 27 -82 26 -34 -1 -140
-10 -234 -20z m290 -53 c21 -32 56 -137 63 -190 l6 -44 -63 -10 c-256 -44
-1255 -49 -1297 -7 -20 20 42 101 101 132 31 15 497 78 912 122 249 26 259 26
278 -3z m-1346 -232 c-3 -3 -12 -4 -19 -1 -8 3 -5 6 6 6 11 1 17 -2 13 -5z
m13 -68 c126 -29 259 -38 585 -41 433 -5 719 13 827 51 34 12 37 11 44 -8 3
-11 3 -40 -1 -64 -6 -40 -9 -44 -43 -53 -194 -52 -913 -66 -1258 -26 -216 26
-269 47 -260 105 2 14 5 33 5 43 1 13 6 17 19 13 9 -3 46 -12 82 -20z m1530
-163 c0 -27 -38 -50 -91 -57 -359 -43 -1017 -34 -1394 20 -143 20 -185 31
-185 49 0 19 -7 19 102 -9 217 -56 555 -76 973 -57 356 16 501 36 559 77 21
14 36 5 36 -23z m-1390 -112 c268 -30 985 -42 1174 -21 49 6 90 9 92 7 2 -2 0
-50 -5 -108 -6 -57 -12 -138 -15 -179 -4 -41 -26 -327 -51 -635 -25 -308 -50
-623 -56 -700 -5 -77 -12 -149 -14 -160 -3 -16 -27 -27 -107 -53 -354 -112
-673 -107 -950 15 -32 14 -58 31 -58 37 0 7 -16 149 -35 317 -20 167 -65 556
-100 864 -35 308 -67 578 -70 599 l-6 39 53 -6 c29 -3 96 -10 148 -16z"/>
<path d="M1960 1758 l0 -91 -25 23 c-19 18 -36 24 -68 23 -23 -1 -63 -1 -89
-2 -42 -1 -48 -3 -48 -22 0 -20 -1 -20 -31 5 -35 30 -65 33 -97 11 -19 -14
-25 -14 -53 1 -19 10 -42 13 -58 10 -14 -4 -47 -6 -73 -6 l-48 1 0 -101 0
-100 40 0 39 0 3 73 c3 69 4 72 28 72 24 0 25 -3 28 -72 l3 -73 34 0 35 0 0
63 c0 65 11 87 41 87 23 0 29 -20 29 -91 l0 -59 40 0 40 0 0 -50 0 -50 35 0
35 0 0 56 c0 53 1 55 23 48 12 -4 27 -7 32 -7 36 0 55 6 76 24 l24 21 3 -21
c3 -17 11 -21 38 -21 30 0 34 3 34 26 l0 25 36 -27 c26 -20 47 -27 79 -27 42
0 95 24 95 43 0 20 -37 29 -69 17 -33 -12 -60 -4 -69 21 -3 9 18 12 72 12 69
0 76 2 76 20 0 35 -22 69 -55 85 -54 25 -92 18 -142 -28 l-23 -20 0 96 0 97
-35 0 -35 0 0 -92z m214 -103 c4 -12 -3 -15 -34 -15 -31 0 -38 3 -34 15 4 8
18 15 34 15 16 0 30 -7 34 -15z m-300 -11 c27 -26 18 -64 -17 -77 -29 -11 -57
10 -57 41 0 49 42 69 74 36z"/>
<path d="M1301 1826 c-7 -8 -11 -25 -9 -38 2 -18 9 -23 32 -23 36 0 56 27 40
53 -14 22 -48 27 -63 8z"/>
<path d="M1173 1711 c-53 -23 -47 -84 10 -114 49 -25 48 -41 -3 -33 -33 5 -41
3 -50 -14 -10 -18 -7 -22 25 -36 40 -17 97 -11 120 13 13 13 15 12 15 -1 0
-12 10 -16 35 -16 l35 0 0 100 0 100 -32 0 c-18 0 -55 2 -83 5 -27 3 -60 1
-72 -4z m117 -66 l0 -35 -45 22 c-48 23 -50 44 -4 34 15 -3 31 -1 34 4 11 18
15 11 15 -25z"/>
<path d="M1204 1429 c-4 -7 4 -20 17 -31 l24 -20 -22 5 c-13 3 -23 1 -23 -4 0
-5 11 -9 25 -9 32 0 33 25 3 42 l-23 12 25 7 c23 6 23 7 3 8 -12 1 -25 -4 -29
-10z"/>
<path d="M1470 1396 c0 -26 5 -46 11 -46 5 0 8 4 4 9 -3 5 7 11 22 13 24 3 28
8 28 33 0 27 -4 30 -32 33 -33 3 -33 3 -33 -42z m57 18 c8 -21 -13 -42 -28
-27 -13 13 -5 43 11 43 6 0 13 -7 17 -16z"/>
<path d="M1647 1434 c-11 -11 -8 -84 3 -84 6 0 10 4 10 9 0 5 10 11 23 13 17
2 22 10 22 33 0 25 -5 31 -25 33 -14 2 -29 0 -33 -4z m50 -20 c9 -23 -13 -40
-32 -24 -12 10 -13 16 -4 26 15 18 28 18 36 -2z"/>
<path d="M1814 1426 c-11 -28 1 -51 26 -53 l25 -3 -25 12 c-23 10 -23 11 -5
15 44 9 48 12 35 28 -16 19 -49 19 -56 1z m41 -6 c3 -5 -1 -10 -9 -10 -9 0
-16 5 -16 10 0 6 4 10 9 10 6 0 13 -4 16 -10z"/>
<path d="M1979 1438 c-6 -11 -3 -58 3 -58 4 0 8 9 8 20 0 10 8 24 18 29 15 9
15 10 -5 11 -13 0 -24 -1 -24 -2z"/>
<path d="M2120 1425 c0 -9 7 -18 15 -21 24 -10 17 -26 -7 -19 -18 6 -20 4 -12
-5 14 -15 46 -10 52 8 2 7 -5 16 -17 19 -26 7 -27 20 -3 26 13 4 11 5 -5 6
-15 1 -23 -5 -23 -14z"/>
<path d="M1357 1423 c-11 -10 -8 -43 3 -43 6 0 10 11 10 25 0 26 -2 29 -13 18z"/>
</g>
</svg>
