<?xml version="1.0" standalone="no"?>
<!DOCTYPE svg PUBLIC "-//W3C//DTD SVG 20010904//EN"
 "http://www.w3.org/TR/2001/REC-SVG-20010904/DTD/svg10.dtd">
<svg version="1.0" xmlns="http://www.w3.org/2000/svg"
 width="514.000000pt" height="514.000000pt" viewBox="0 0 514.000000 514.000000"
 preserveAspectRatio="xMidYMid meet">
<metadata>
Created by potrace 1.14, written by Peter Selinger 2001-2017
</metadata>
<g transform="translate(0.000000,514.000000) scale(0.100000,-0.100000)"
fill="#000000" stroke="none">
<path d="M30 2565 l0 -2535 2535 0 2535 0 0 2535 0 2535 -2535 0 -2535 0 0
-2535z m4810 0 l0 -2275 -2275 0 -2275 0 0 2275 0 2275 2275 0 2275 0 0 -2275z"/>
<path d="M340 2565 l0 -2225 2225 0 2225 0 0 2225 0 2225 -2225 0 -2225 0 0
-2225z m1054 1362 c77 -199 144 -371 149 -381 7 -15 37 61 142 360 l132 379
331 3 c319 2 332 2 332 -16 0 -16 -10 -20 -72 -25 -40 -3 -85 -11 -100 -17
-52 -24 -53 -31 -53 -610 0 -492 1 -538 17 -562 19 -29 70 -48 131 -48 30 0
37 -4 37 -20 0 -20 -7 -20 -415 -20 -408 0 -415 0 -415 20 0 17 7 20 43 20 62
0 115 18 129 43 13 23 15 111 20 737 l3 315 -133 -395 c-74 -217 -160 -471
-191 -565 l-58 -170 -63 0 -64 0 -215 534 -216 534 -3 -456 c-2 -345 1 -464
10 -492 20 -58 52 -76 147 -82 70 -5 81 -8 81 -24 0 -18 -13 -19 -265 -19
-252 0 -265 1 -265 19 0 16 11 19 79 24 93 6 123 22 145 78 14 34 16 107 16
542 0 470 -1 505 -19 537 -28 53 -57 69 -138 76 -62 6 -73 10 -73 25 0 18 15
19 338 19 l337 0 139 -363z m2090 -1602 c49 -10 106 -35 198 -86 113 -63 132
-70 153 -61 29 13 52 55 61 111 6 35 10 41 30 41 l24 0 0 -320 0 -320 -22 0
c-20 0 -28 15 -67 123 -69 193 -114 280 -180 346 -71 71 -141 101 -234 101
-79 0 -129 -23 -185 -84 -91 -99 -141 -271 -149 -511 -9 -290 51 -515 173
-645 89 -95 224 -121 359 -70 119 46 231 201 272 378 17 70 25 80 50 64 18
-11 -11 -140 -50 -227 -58 -126 -149 -223 -263 -277 -100 -47 -188 -61 -354
-55 -170 6 -228 19 -360 84 -80 39 -109 60 -185 137 -102 103 -150 182 -187
311 -29 104 -32 324 -5 425 63 234 230 419 453 499 133 49 335 64 468 36z
m914 -1116 c122 -60 146 -217 48 -315 -96 -97 -267 -70 -326 51 -32 66 -25
150 16 202 63 79 172 105 262 62z"/>
</g>
</svg>
