<?xml version="1.0" standalone="no"?>
<!DOCTYPE svg PUBLIC "-//W3C//DTD SVG 20010904//EN"
 "http://www.w3.org/TR/2001/REC-SVG-20010904/DTD/svg10.dtd">
<svg version="1.0" xmlns="http://www.w3.org/2000/svg"
 width="293.000000pt" height="293.000000pt" viewBox="0 0 293.000000 293.000000"
 preserveAspectRatio="xMidYMid meet">
<metadata>
Created by potrace 1.14, written by Peter Selinger 2001-2017
</metadata>
<g transform="translate(0.000000,293.000000) scale(0.100000,-0.100000)"
fill="#000000" stroke="none">
<path d="M1377 2924 c-1 -1 -159 -5 -352 -8 -192 -4 -386 -8 -430 -11 -44 -2
-138 -6 -210 -10 -125 -5 -171 -9 -262 -21 -39 -5 -43 -8 -52 -42 -5 -20 -12
-64 -16 -97 -3 -33 -8 -78 -10 -100 -4 -40 -13 -180 -20 -335 -29 -595 -23
-1859 10 -2085 2 -16 7 -52 10 -80 7 -55 26 -91 47 -92 7 0 69 -4 138 -8 396
-22 764 -29 1510 -29 607 0 895 5 981 19 13 2 47 6 74 10 85 10 102 21 103 63
28 879 21 2239 -13 2552 -17 154 -34 209 -68 211 -7 0 -21 2 -32 5 -66 14
-201 27 -395 39 -147 9 -1006 25 -1013 19z m315 -133 c197 -1 177 16 181 -158
3 -152 10 -146 -191 -154 -197 -8 -212 -14 -224 -89 -4 -28 12 -58 35 -64 12
-3 86 -6 163 -6 142 0 240 -12 259 -31 18 -18 10 -98 -13 -122 -20 -19 -33
-21 -154 -22 -148 -2 -184 -9 -198 -35 -35 -65 6 -91 148 -96 199 -7 222 -16
222 -84 0 -55 -14 -85 -47 -98 -16 -7 -99 -13 -191 -14 -149 -3 -165 -5 -178
-22 -37 -51 -2 -78 122 -95 128 -18 138 -21 163 -46 28 -28 23 -51 -15 -65
-27 -11 -175 -14 -254 -5 -310 32 -348 38 -407 67 -51 25 -10 93 62 102 22 3
80 8 129 11 101 5 136 21 136 61 0 70 -35 83 -240 85 -85 1 -172 4 -192 7 -35
4 -38 6 -38 38 0 18 6 36 12 40 7 5 71 9 142 11 141 3 192 14 201 43 15 47
-29 75 -135 85 -36 3 -75 8 -86 11 -26 7 -44 43 -44 89 0 47 29 65 105 66 33
0 76 6 95 13 61 22 80 90 28 100 -115 22 -204 49 -223 66 -15 14 -25 39 -29
69 -9 67 -33 86 -105 85 -63 -1 -104 -19 -171 -75 -67 -56 -89 -62 -252 -64
-152 -2 -178 -9 -178 -44 0 -10 12 -29 27 -43 46 -42 77 -48 317 -63 103 -6
126 -19 126 -71 0 -23 -6 -37 -21 -44 -11 -7 -82 -13 -157 -14 -154 -3 -207
-18 -218 -63 -12 -47 9 -54 163 -54 161 -1 206 -13 211 -60 6 -51 -45 -75
-179 -84 -223 -15 -272 -26 -286 -61 -9 -23 36 -58 103 -79 42 -13 80 -16 180
-12 178 6 225 -7 260 -75 55 -106 7 -137 -215 -143 -219 -6 -267 -16 -271 -55
-7 -50 13 -64 101 -74 30 -3 74 -9 99 -12 25 -3 369 -7 765 -9 935 -4 1014 -9
999 -58 -10 -34 -24 -46 -63 -56 -112 -30 -221 -36 -656 -34 -214 1 -577 2
-805 3 -444 2 -470 0 -470 -43 0 -43 35 -74 98 -89 53 -12 538 -15 1622 -9
107 0 206 -1 220 -3 14 -2 33 -4 42 -5 29 -2 50 -31 43 -60 -18 -72 -98 -109
-277 -127 -54 -6 -370 -5 -638 1 -276 6 -885 6 -935 0 -113 -14 -119 -17 -130
-76 -13 -71 -74 -66 892 -64 922 3 1159 9 1196 32 13 8 45 83 52 123 20 109
23 148 24 278 0 147 -12 217 -44 252 -17 19 -76 30 -190 36 -38 2 -117 5 -174
8 -114 6 -138 17 -127 58 13 50 9 50 257 53 317 4 416 23 402 74 -11 43 -29
47 -218 56 -71 3 -150 8 -175 10 -25 2 -69 7 -99 9 -30 3 -59 10 -63 14 -5 5
-12 33 -14 63 -9 90 -5 92 182 94 267 4 331 21 301 80 -25 50 -82 66 -237 70
-179 4 -210 15 -210 74 0 28 25 39 101 45 191 16 257 28 316 57 48 23 84 66
78 95 -2 10 -4 22 -4 27 -2 19 -65 30 -181 32 -137 3 -184 16 -248 70 -30 25
-85 120 -126 219 l-16 38 168 -7 c215 -9 326 -17 387 -31 11 -2 32 -6 48 -8
71 -12 83 -27 93 -115 3 -25 7 -56 9 -68 27 -163 28 -1570 0 -1978 -14 -214
-18 -252 -29 -333 -9 -58 -17 -66 -87 -76 -25 -4 -57 -9 -70 -11 -61 -10 -249
-21 -494 -30 -147 -5 -975 -6 -1095 0 -388 17 -416 19 -412 34 12 57 12 134
-3 228 -19 127 -14 148 37 155 50 8 101 -8 130 -41 26 -29 27 -35 24 -112 -2
-45 -1 -90 1 -100 9 -35 54 -41 320 -44 475 -7 768 -7 794 0 30 8 45 36 84
162 14 46 36 95 49 110 21 25 29 27 100 27 71 1 79 -1 97 -23 16 -20 20 -38
18 -95 -2 -99 -1 -104 21 -126 16 -16 33 -20 96 -20 101 0 156 15 197 55 45
44 62 105 54 199 -8 95 -19 121 -59 146 -61 38 -140 51 -293 51 -311 -2 -338
-13 -430 -176 -53 -95 -74 -115 -121 -115 -44 0 -73 26 -138 127 -73 112 -93
127 -173 129 -83 3 -114 -18 -178 -123 -57 -92 -95 -123 -149 -123 -73 0 -107
36 -144 150 -13 41 -25 59 -48 72 -89 52 -340 63 -435 21 -37 -17 -51 -30 -70
-69 -22 -45 -24 -61 -24 -189 0 -77 4 -168 8 -202 l9 -62 -39 6 c-62 10 -91
29 -98 66 -3 17 -7 46 -10 62 -32 192 -23 2185 10 2361 2 11 4 27 4 36 1 23
27 36 87 43 27 3 60 8 74 10 26 4 182 16 285 21 33 1 211 6 395 9 184 4 336 8
337 9 1 0 30 0 65 0 35 -1 138 -2 230 -3z"/>
</g>
</svg>
