<?xml version="1.0" standalone="no"?>
<!DOCTYPE svg PUBLIC "-//W3C//DTD SVG 20010904//EN"
 "http://www.w3.org/TR/2001/REC-SVG-20010904/DTD/svg10.dtd">
<svg version="1.0" xmlns="http://www.w3.org/2000/svg"
 width="293.000000pt" height="293.000000pt" viewBox="0 0 293.000000 293.000000"
 preserveAspectRatio="xMidYMid meet">
<metadata>
Created by potrace 1.14, written by Peter Selinger 2001-2017
</metadata>
<g transform="translate(0.000000,293.000000) scale(0.100000,-0.100000)"
fill="#000000" stroke="none">
<path d="M1433 2771 c-26 -16 -33 -28 -39 -68 -4 -26 -4 -279 0 -561 l7 -512
-24 -23 c-19 -20 -37 -25 -119 -31 -217 -15 -309 -82 -195 -143 24 -12 67 -18
165 -22 103 -5 135 -9 142 -21 32 -49 50 -220 49 -470 -1 -236 -12 -507 -22
-516 -15 -15 -123 -22 -211 -13 -136 14 -193 33 -242 82 -54 55 -80 127 -93
266 -17 165 -12 170 206 190 155 14 204 43 167 98 -28 44 -76 56 -246 61 -129
4 -158 7 -163 20 -12 33 -24 328 -30 782 -4 261 -10 531 -14 599 -7 112 -10
126 -30 143 -30 23 -108 24 -140 2 -55 -39 -55 -40 -59 -669 -2 -319 1 -638 6
-710 14 -188 10 -193 -205 -204 -155 -9 -183 -21 -183 -76 0 -58 35 -68 213
-66 146 1 148 1 171 -24 27 -29 31 -47 46 -197 6 -59 17 -126 26 -150 52 -149
224 -275 432 -318 183 -37 335 -45 872 -45 476 0 519 1 563 18 70 27 97 87 58
126 -38 38 -87 43 -441 51 -190 5 -358 12 -375 17 -52 16 -59 46 -63 265 l-4
196 26 17 c16 11 87 26 187 41 170 25 306 54 362 78 78 32 143 134 177 278 25
110 31 185 33 420 2 245 -7 231 151 238 125 5 156 19 156 67 0 63 -29 79 -169
93 -121 13 -160 25 -166 53 -2 12 -6 135 -7 272 -3 272 -6 289 -61 329 -42 31
-151 30 -177 -2 -27 -33 -34 -143 -20 -322 16 -203 16 -232 0 -270 -19 -47
-59 -62 -186 -70 -123 -9 -151 -18 -160 -55 -18 -73 28 -97 208 -104 113 -5
140 -9 155 -24 39 -38 24 -460 -23 -640 -9 -36 -26 -73 -41 -89 -37 -39 -131
-67 -270 -80 -110 -10 -125 -9 -148 6 -36 23 -45 54 -45 147 0 88 17 141 49
158 11 7 71 21 132 32 61 11 124 26 141 35 38 20 54 54 38 84 -20 38 -74 53
-217 58 -111 4 -133 7 -137 21 -11 39 -16 139 -26 476 -11 393 -24 598 -39
638 -11 29 -57 57 -93 57 -13 0 -37 -9 -55 -19z"/>
</g>
</svg>
