<?xml version="1.0" standalone="no"?>
<!DOCTYPE svg PUBLIC "-//W3C//DTD SVG 20010904//EN"
 "http://www.w3.org/TR/2001/REC-SVG-20010904/DTD/svg10.dtd">
<svg version="1.0" xmlns="http://www.w3.org/2000/svg"
 width="313.000000pt" height="313.000000pt" viewBox="0 0 313.000000 313.000000"
 preserveAspectRatio="xMidYMid meet">
<metadata>
Created by potrace 1.14, written by Peter Selinger 2001-2017
</metadata>
<g transform="translate(0.000000,313.000000) scale(0.100000,-0.100000)"
fill="#000000" stroke="none">
<path d="M1192 3120 c-18 -3 -33 -9 -32 -13 0 -4 -30 -24 -67 -43 -38 -20 -79
-42 -93 -49 -14 -7 -42 -16 -63 -19 -55 -9 -106 -32 -114 -53 -4 -10 -56 -70
-116 -133 -176 -185 -280 -328 -310 -426 -9 -27 -23 -75 -33 -108 -18 -59 -60
-116 -87 -116 -9 0 -21 -22 -32 -62 -20 -70 -21 -98 -5 -108 13 -8 13 -16 0
-40 -4 -8 -11 -37 -14 -65 -4 -27 -23 -95 -43 -150 -53 -151 -73 -224 -77
-290 -4 -72 0 -87 25 -80 22 7 21 13 24 -165 2 -166 10 -197 95 -350 22 -40
29 -63 24 -83 -7 -35 11 -65 87 -139 32 -32 61 -69 65 -82 3 -15 20 -30 45
-41 21 -10 39 -22 39 -27 0 -19 2 -24 17 -40 8 -9 38 -25 67 -34 57 -18 96
-40 96 -54 0 -5 -10 -10 -22 -12 -19 -3 -15 -7 22 -25 183 -87 583 -218 700
-230 54 -5 137 -21 215 -42 68 -19 137 -31 201 -37 54 -5 64 -3 88 18 34 30
23 45 -39 54 -133 17 -121 22 62 22 87 0 187 3 223 8 85 10 97 10 150 -6 71
-20 109 -8 185 60 36 33 75 60 86 60 21 0 74 24 99 45 8 7 45 15 83 17 82 5
102 20 97 75 -1 21 -3 68 -3 104 -2 64 0 68 43 123 90 115 107 161 88 236 -5
19 -17 71 -27 115 -10 44 -27 104 -40 133 l-21 54 21 5 c23 6 23 7 -17 143
-14 47 -36 108 -50 136 -32 68 -39 108 -24 144 29 70 -71 323 -111 283 -21
-21 -10 -119 30 -258 49 -171 54 -200 41 -225 -18 -33 -27 -23 -35 38 -8 65
-6 55 -35 182 -24 108 -25 113 -39 195 -10 59 -14 115 -12 145 1 12 5 11 16
-4 27 -36 40 -4 42 104 2 93 -14 186 -37 215 -5 6 -12 36 -15 67 -3 32 -10 71
-15 88 -5 16 -7 30 -4 30 9 0 -31 87 -54 117 -17 23 -36 35 -64 40 -38 8 -42
12 -54 54 -10 34 -35 69 -94 132 -44 48 -82 99 -85 114 -4 15 -10 38 -15 51
-11 24 -65 62 -92 62 -9 0 -72 18 -140 39 -142 45 -176 52 -278 55 -99 4 -98
3 -105 25 -5 18 -16 19 -173 15 -92 -2 -187 0 -212 4 -25 4 -60 5 -78 2z m198
-48 c41 -6 125 -14 185 -17 300 -16 427 -44 537 -117 58 -39 74 -55 64 -65 -3
-3 -29 11 -58 30 -84 58 -215 102 -332 113 -16 1 -48 5 -70 8 -55 8 -340 19
-446 18 -52 0 -99 -7 -122 -16 -50 -21 -56 -20 -24 5 33 26 131 58 166 54 14
-1 59 -7 100 -13z m-452 -171 c-40 -32 -104 -91 -143 -132 -161 -171 -225
-238 -225 -232 0 17 143 252 156 257 9 3 26 6 39 6 43 0 73 21 99 70 28 51 72
79 139 89 5 0 -25 -25 -65 -58z m-445 -516 c-3 -9 -8 -14 -10 -11 -3 3 -2 9 2
15 9 16 15 13 8 -4z m2065 -32 c27 -64 54 -170 49 -197 -3 -19 -5 -18 -16 9
-14 32 -71 215 -71 228 0 22 20 1 38 -40z m-2096 -40 c-78 -152 -179 -482
-206 -674 -28 -193 -26 -409 4 -572 6 -33 9 -61 6 -64 -24 -24 -69 228 -68
377 0 56 11 189 18 225 2 10 6 37 10 60 9 62 50 212 89 325 46 132 154 375
162 366 3 -2 -4 -21 -15 -43z"/>
</g>
</svg>
